<svg xmlns="http://www.w3.org/2000/svg" width="680" height="180" viewBox="0 0 680 180" fill="none"><defs><linearGradient id="g" x1="0" y1="0" x2="1" y2="1"><stop offset="0%" stop-color="#c9a44c" /><stop offset="100%" stop-color="#b8923f" /></linearGradient></defs><g transform="translate(30,13) scale(0.8)"><circle cx="100" cy="100" r="80" stroke="#c9a44c" stroke-width="2" fill="none" opacity="0.3" /><circle cx="100" cy="100" r="52.800000000000004" stroke="#c9a44c" stroke-width="2" fill="none" opacity="0.2" /><circle cx="100" cy="100" r="26.400000000000002" stroke="#c9a44c" stroke-width="2" fill="none" opacity="0.1" /><line x1="100" y1="100" x2="100" y2="20.0" stroke="#1f2937" stroke-width="1" opacity="0.3" /><line x1="100" y1="100" x2="176.0845213036123" y2="75.2786404500042" stroke="#1f2937" stroke-width="1" opacity="0.3" /><line x1="100" y1="100" x2="147.02282018339787" y2="164.72135954999578" stroke="#1f2937" stroke-width="1" opacity="0.3" /><line x1="100" y1="100" x2="52.97717981660216" y2="164.72135954999578" stroke="#1f2937" stroke-width="1" opacity="0.3" /><line x1="100" y1="100" x2="23.91547869638771" y2="75.27864045000422" stroke="#1f2937" stroke-width="1" opacity="0.3" /><polygon points="100.0,52.0 141.84648671698676,86.40325224750231 123.51141009169893,132.3606797749979 72.72676429362926,137.53838853899757 50.54506115265201,83.93111629250274" fill="#1f2937" opacity="0.5" /><polygon points="100.0,36.0 153.2591649125286,82.69504831500295 130.5648331192086,142.06888370749726 64.73288486245161,148.54101966249686 35.32815689192955,78.98684438250359" fill="#c9a44c" opacity="0.6" /><circle cx="100" cy="100" r="6" fill="#1f2937" /></g><g transform="translate(220,40)"><text x="0" y="52" font-size="72" font-family="Inter, Manrope, system-ui, -apple-system, Segoe UI, Roboto, Helvetica, Arial, sans-serif" font-weight="700" fill="#1f2937">p2cx</text><text x="3" y="100" font-size="22" font-family="Inter, Manrope, system-ui, -apple-system, Segoe UI, Roboto, Helvetica, Arial, sans-serif" font-weight="500" fill="#6b7280">Digitale Prozesse. Starke Unternehmen.</text><rect x="2" y="110" width="260" height="6" rx="3" fill="url(#g)" /></g></svg>