<svg xmlns="http://www.w3.org/2000/svg" width="300" height="180" viewBox="0 0 300 180">
<rect x="0" y="0" width="300" height="180" fill="#FFFFFF"/>
<rect x="0" y="0" width="50" height="120" rx="6" ry="6" fill="#FFFFFF" stroke="#8E8E93" stroke-width="2"/>
<rect x="50" y="0" width="60" height="60" rx="6" ry="6" fill="#FFFFFF" stroke="#8E8E93" stroke-width="2"/>
<rect x="50" y="60" width="60" height="60" rx="6" ry="6" fill="#D4AF37" stroke="#8E8E93" stroke-width="2"/>
<rect x="110" y="0" width="80" height="120" rx="6" ry="6" fill="#FFFFFF" stroke="#8E8E93" stroke-width="2"/>
<rect x="190" y="0" width="60" height="60" rx="6" ry="6" fill="#FFFFFF" stroke="#8E8E93" stroke-width="2"/>
<rect x="190" y="60" width="60" height="60" rx="6" ry="6" fill="#FFFFFF" stroke="#8E8E93" stroke-width="2"/>
<rect x="250" y="0" width="50" height="120" rx="6" ry="6" fill="#FFFFFF" stroke="#8E8E93" stroke-width="2"/>
<rect x="0" y="120" width="150" height="60" rx="6" ry="6" fill="#FFFFFF" stroke="#8E8E93" stroke-width="2"/>
<rect x="150" y="120" width="150" height="60" rx="6" ry="6" fill="#FFFFFF" stroke="#8E8E93" stroke-width="2"/>
<rect x="1" y="1" width="298" height="178" fill="none" stroke="#8E8E93" stroke-width="2"/>
</svg>
